<?xml version="1.0" encoding="utf-8"?>
<!-- Generator: Adobe Illustrator 16.0.3, SVG Export Plug-In . SVG Version: 6.00 Build 0)  -->
<!DOCTYPE svg PUBLIC "-//W3C//DTD SVG 1.1//EN" "http://www.w3.org/Graphics/SVG/1.1/DTD/svg11.dtd">
<svg version="1.1" id="Ebene_1" xmlns="http://www.w3.org/2000/svg" xmlns:xlink="http://www.w3.org/1999/xlink" x="0px" y="0px"
	 width="841.89px" height="595.28px" viewBox="0 0 841.89 595.28" enable-background="new 0 0 841.89 595.28" xml:space="preserve">
<g>
	<g>
		<defs>
			<rect id="SVGID_1_" x="212" y="209.28" width="416.741" height="177.092"/>
		</defs>
		<clipPath id="SVGID_2_">
			<use xlink:href="#SVGID_1_"  overflow="visible"/>
		</clipPath>
		<polygon clip-path="url(#SVGID_2_)" fill="#FFFFFF" points="628.742,386.372 212,386.372 212,209.28 628.742,209.28 
			628.742,386.372 		"/>
	</g>
	<path fill="#8D1429" d="M586.684,344.136v-1.821h8.068v1.821H591.8v8.026h-2.166v-8.026H586.684L586.684,344.136z M585.372,342.314
		v1.821h-4.76v2.274h4.125v1.683h-4.125v4.069h-2.165v-9.848H585.372L585.372,342.314z M573.133,342.314l3.683,9.848h-2.247
		l-0.744-2.193h-3.685l-0.771,2.193h-2.179l3.723-9.848H573.133L573.133,342.314z M573.257,348.355l-1.241-3.614h-0.027
		l-1.283,3.614H573.257L573.257,348.355z M559.744,342.314v3.779h3.985v-3.779h2.165v9.848h-2.165v-4.247h-3.985v4.247h-2.166
		v-9.848H559.744L559.744,342.314z M553.097,344.942c-0.128-0.208-0.29-0.39-0.481-0.545c-0.195-0.157-0.412-0.279-0.657-0.365
		c-0.243-0.088-0.498-0.132-0.764-0.132c-0.489,0-0.902,0.094-1.242,0.282c-0.34,0.189-0.616,0.441-0.827,0.76
		c-0.212,0.318-0.365,0.678-0.462,1.082s-0.146,0.824-0.146,1.256c0,0.414,0.05,0.815,0.146,1.206
		c0.097,0.393,0.25,0.743,0.462,1.057c0.211,0.312,0.487,0.562,0.827,0.752c0.34,0.188,0.753,0.281,1.242,0.281
		c0.661,0,1.179-0.202,1.55-0.607c0.373-0.404,0.601-0.938,0.683-1.602h2.099c-0.056,0.617-0.199,1.176-0.429,1.672
		s-0.534,0.919-0.911,1.268c-0.375,0.351-0.817,0.617-1.322,0.802c-0.507,0.181-1.063,0.275-1.669,0.275
		c-0.755,0-1.434-0.131-2.035-0.395c-0.604-0.26-1.11-0.624-1.524-1.083c-0.413-0.459-0.73-1.001-0.952-1.621
		c-0.221-0.62-0.329-1.287-0.329-2.005c0-0.735,0.108-1.419,0.329-2.048c0.222-0.63,0.539-1.18,0.952-1.647
		c0.414-0.471,0.921-0.839,1.524-1.104c0.602-0.269,1.28-0.402,2.035-0.402c0.542,0,1.054,0.08,1.538,0.235
		c0.481,0.156,0.912,0.383,1.295,0.681c0.383,0.302,0.696,0.67,0.944,1.112c0.249,0.442,0.405,0.946,0.471,1.516h-2.098
		C553.309,345.377,553.225,345.147,553.097,344.942 M538.847,349.733c0.119,0.232,0.279,0.417,0.477,0.562
		c0.196,0.141,0.429,0.246,0.696,0.315c0.267,0.069,0.543,0.104,0.827,0.104c0.193,0,0.4-0.017,0.62-0.051
		c0.222-0.031,0.428-0.093,0.621-0.185c0.192-0.091,0.354-0.22,0.482-0.379c0.13-0.16,0.193-0.367,0.193-0.614
		c0-0.267-0.086-0.482-0.255-0.648c-0.171-0.166-0.393-0.305-0.669-0.413c-0.275-0.11-0.589-0.207-0.938-0.288
		c-0.35-0.085-0.703-0.176-1.063-0.278c-0.368-0.091-0.727-0.205-1.076-0.336c-0.349-0.135-0.662-0.307-0.938-0.519
		c-0.276-0.212-0.5-0.477-0.669-0.792c-0.171-0.318-0.255-0.702-0.255-1.152c0-0.507,0.107-0.946,0.324-1.318
		c0.216-0.372,0.498-0.683,0.849-0.931c0.349-0.249,0.744-0.432,1.185-0.551c0.442-0.119,0.885-0.181,1.324-0.181
		c0.515,0,1.009,0.059,1.483,0.175c0.473,0.111,0.895,0.3,1.263,0.557s0.659,0.586,0.875,0.987c0.216,0.4,0.324,0.885,0.324,1.455
		h-2.098c-0.017-0.297-0.08-0.537-0.185-0.731c-0.106-0.195-0.247-0.345-0.421-0.455c-0.175-0.111-0.374-0.188-0.6-0.235
		c-0.226-0.047-0.472-0.068-0.738-0.068c-0.176,0-0.35,0.019-0.524,0.055c-0.174,0.036-0.334,0.103-0.475,0.193
		c-0.145,0.093-0.261,0.207-0.353,0.345c-0.093,0.139-0.138,0.313-0.138,0.524c0,0.192,0.036,0.35,0.11,0.469
		c0.072,0.12,0.219,0.23,0.435,0.332c0.216,0.1,0.514,0.202,0.896,0.302c0.38,0.103,0.88,0.23,1.495,0.387
		c0.185,0.037,0.438,0.104,0.767,0.2c0.325,0.097,0.649,0.251,0.972,0.461c0.321,0.213,0.601,0.495,0.835,0.85
		c0.233,0.354,0.352,0.808,0.352,1.358c0,0.451-0.086,0.868-0.263,1.256c-0.175,0.387-0.435,0.719-0.777,1
		c-0.347,0.278-0.774,0.498-1.284,0.654c-0.51,0.155-1.103,0.235-1.772,0.235c-0.542,0-1.069-0.069-1.578-0.2
		c-0.511-0.135-0.963-0.342-1.352-0.627c-0.392-0.285-0.702-0.65-0.932-1.091s-0.34-0.965-0.331-1.571h2.097
		C538.668,349.225,538.727,349.505,538.847,349.733 M528.708,342.314l4.11,6.606h0.028v-6.606h2.026v9.848h-2.164l-4.098-6.592
		h-0.028v6.592h-2.027v-9.848H528.708L528.708,342.314z M524.298,342.314v1.821h-5.2v2.108h4.772v1.684h-4.772v2.414h5.31v1.82
		h-7.477v-9.848H524.298L524.298,342.314z M509.182,349.733c0.12,0.232,0.278,0.417,0.477,0.562c0.197,0.141,0.43,0.246,0.697,0.315
		c0.266,0.069,0.542,0.104,0.826,0.104c0.192,0,0.401-0.017,0.622-0.051c0.221-0.031,0.428-0.093,0.62-0.185
		c0.192-0.091,0.354-0.22,0.482-0.379c0.129-0.16,0.193-0.367,0.193-0.614c0-0.267-0.086-0.482-0.255-0.648
		c-0.171-0.166-0.395-0.305-0.67-0.413c-0.275-0.11-0.588-0.207-0.937-0.288c-0.352-0.085-0.705-0.176-1.063-0.278
		c-0.368-0.091-0.727-0.205-1.076-0.336c-0.349-0.135-0.661-0.307-0.938-0.519s-0.5-0.477-0.669-0.792
		c-0.171-0.318-0.255-0.702-0.255-1.152c0-0.507,0.107-0.946,0.324-1.318c0.215-0.372,0.5-0.683,0.847-0.931
		c0.351-0.249,0.746-0.432,1.188-0.551s0.882-0.181,1.323-0.181c0.516,0,1.009,0.059,1.483,0.175c0.473,0.111,0.895,0.3,1.261,0.557
		c0.368,0.257,0.661,0.586,0.877,0.987c0.215,0.4,0.325,0.885,0.325,1.455h-2.099c-0.018-0.297-0.079-0.537-0.186-0.731
		c-0.107-0.195-0.246-0.345-0.42-0.455c-0.175-0.111-0.376-0.188-0.6-0.235c-0.226-0.047-0.472-0.068-0.739-0.068
		c-0.174,0-0.35,0.019-0.523,0.055c-0.176,0.036-0.334,0.103-0.476,0.193c-0.144,0.093-0.26,0.207-0.354,0.345
		c-0.091,0.139-0.138,0.313-0.138,0.524c0,0.192,0.038,0.35,0.112,0.469c0.072,0.12,0.217,0.23,0.434,0.332
		c0.216,0.1,0.516,0.202,0.897,0.302c0.381,0.103,0.88,0.23,1.496,0.387c0.185,0.037,0.439,0.104,0.766,0.2
		c0.325,0.097,0.649,0.251,0.971,0.461c0.322,0.213,0.602,0.495,0.835,0.85c0.235,0.354,0.353,0.808,0.353,1.358
		c0,0.451-0.088,0.868-0.263,1.256c-0.175,0.387-0.433,0.719-0.778,1c-0.345,0.278-0.773,0.498-1.283,0.654
		c-0.511,0.155-1.101,0.235-1.772,0.235c-0.543,0-1.069-0.069-1.579-0.2c-0.51-0.135-0.96-0.342-1.353-0.627
		c-0.391-0.285-0.701-0.65-0.93-1.091c-0.231-0.44-0.34-0.965-0.332-1.571h2.097C509.003,349.225,509.063,349.505,509.182,349.733
		 M499.494,349.733c0.121,0.232,0.279,0.417,0.476,0.562c0.199,0.141,0.432,0.246,0.697,0.315s0.542,0.104,0.827,0.104
		c0.194,0,0.401-0.017,0.622-0.051c0.219-0.031,0.428-0.093,0.62-0.185c0.192-0.091,0.354-0.22,0.482-0.379
		c0.128-0.16,0.192-0.367,0.192-0.614c0-0.267-0.084-0.482-0.253-0.648c-0.171-0.166-0.395-0.305-0.671-0.413
		c-0.274-0.11-0.589-0.207-0.937-0.288c-0.351-0.085-0.705-0.176-1.063-0.278c-0.366-0.091-0.726-0.205-1.074-0.336
		c-0.351-0.135-0.663-0.307-0.939-0.519c-0.274-0.212-0.499-0.477-0.668-0.792c-0.171-0.318-0.256-0.702-0.256-1.152
		c0-0.507,0.108-0.946,0.325-1.318c0.216-0.372,0.498-0.683,0.847-0.931c0.352-0.249,0.745-0.432,1.187-0.551
		c0.443-0.119,0.883-0.181,1.325-0.181c0.515,0,1.008,0.059,1.482,0.175c0.474,0.111,0.894,0.3,1.263,0.557
		c0.366,0.257,0.657,0.586,0.873,0.987c0.217,0.4,0.326,0.885,0.326,1.455h-2.097c-0.019-0.297-0.08-0.537-0.187-0.731
		c-0.104-0.195-0.245-0.345-0.42-0.455c-0.176-0.111-0.376-0.188-0.602-0.235c-0.224-0.047-0.471-0.068-0.737-0.068
		c-0.174,0-0.35,0.019-0.523,0.055c-0.175,0.036-0.333,0.103-0.477,0.193c-0.142,0.093-0.26,0.207-0.352,0.345
		c-0.093,0.139-0.138,0.313-0.138,0.524c0,0.192,0.037,0.35,0.11,0.469c0.072,0.12,0.218,0.23,0.435,0.332
		c0.216,0.1,0.515,0.202,0.897,0.302c0.38,0.103,0.88,0.23,1.495,0.387c0.184,0.037,0.439,0.104,0.766,0.2s0.65,0.251,0.972,0.461
		c0.323,0.213,0.602,0.495,0.835,0.85c0.234,0.354,0.353,0.808,0.353,1.358c0,0.451-0.088,0.868-0.262,1.256
		c-0.175,0.387-0.435,0.719-0.78,1c-0.345,0.278-0.771,0.498-1.283,0.654c-0.51,0.155-1.101,0.235-1.771,0.235
		c-0.544,0-1.07-0.069-1.581-0.2c-0.51-0.135-0.96-0.342-1.351-0.627s-0.702-0.65-0.932-1.091s-0.34-0.965-0.33-1.571h2.097
		C499.316,349.225,499.375,349.505,499.494,349.733 M495.431,352.162h-2.164v-9.848h2.164V352.162L495.431,352.162z
		 M486.904,352.162l-1.668-6.702h-0.026l-1.642,6.702h-2.193l-2.608-9.848h2.167l1.558,6.703h0.028l1.71-6.703h2.027l1.684,6.786
		h0.027l1.613-6.786h2.124l-2.649,9.848H486.904L486.904,352.162z M471.616,349.733c0.119,0.232,0.276,0.417,0.476,0.562
		c0.197,0.141,0.43,0.246,0.695,0.315c0.268,0.069,0.544,0.104,0.829,0.104c0.192,0,0.398-0.017,0.62-0.051
		c0.221-0.031,0.428-0.093,0.62-0.185c0.192-0.091,0.354-0.22,0.482-0.379c0.128-0.16,0.193-0.367,0.193-0.614
		c0-0.267-0.085-0.482-0.254-0.648c-0.171-0.166-0.394-0.305-0.669-0.413c-0.276-0.11-0.59-0.207-0.938-0.288
		c-0.349-0.085-0.703-0.176-1.063-0.278c-0.366-0.091-0.726-0.205-1.074-0.336c-0.35-0.135-0.663-0.307-0.938-0.519
		s-0.5-0.477-0.669-0.792c-0.171-0.318-0.255-0.702-0.255-1.152c0-0.507,0.108-0.946,0.324-1.318s0.499-0.683,0.847-0.931
		c0.352-0.249,0.746-0.432,1.188-0.551s0.882-0.181,1.324-0.181c0.515,0,1.008,0.059,1.482,0.175c0.473,0.111,0.896,0.3,1.262,0.557
		c0.369,0.257,0.66,0.586,0.876,0.987c0.217,0.4,0.324,0.885,0.324,1.455h-2.097c-0.02-0.297-0.08-0.537-0.186-0.731
		c-0.105-0.195-0.246-0.345-0.421-0.455c-0.175-0.111-0.374-0.188-0.6-0.235c-0.225-0.047-0.471-0.068-0.738-0.068
		c-0.175,0-0.349,0.019-0.523,0.055s-0.334,0.103-0.478,0.193c-0.142,0.093-0.258,0.207-0.35,0.345
		c-0.093,0.139-0.139,0.313-0.139,0.524c0,0.192,0.036,0.35,0.109,0.469c0.074,0.12,0.218,0.23,0.437,0.332
		c0.214,0.1,0.514,0.202,0.896,0.302c0.38,0.103,0.88,0.23,1.496,0.387c0.184,0.037,0.438,0.104,0.765,0.2
		c0.326,0.097,0.65,0.251,0.974,0.461c0.32,0.213,0.6,0.495,0.835,0.85c0.232,0.354,0.351,0.808,0.351,1.358
		c0,0.451-0.088,0.868-0.262,1.256c-0.175,0.387-0.436,0.719-0.78,1c-0.344,0.278-0.771,0.498-1.283,0.654
		c-0.509,0.155-1.101,0.235-1.771,0.235c-0.543,0-1.07-0.069-1.579-0.2c-0.51-0.135-0.962-0.342-1.354-0.627
		c-0.39-0.285-0.699-0.65-0.93-1.091c-0.229-0.44-0.34-0.965-0.331-1.571h2.096C471.436,349.225,471.495,349.505,471.616,349.733
		 M460.226,344.136v-1.821h8.068v1.821h-2.951v8.026h-2.166v-8.026H460.226L460.226,344.136z M452.1,342.314v3.779h3.985v-3.779
		h2.166v9.848h-2.166v-4.247H452.1v4.247h-2.166v-9.848H452.1L452.1,342.314z M445.659,344.942c-0.128-0.208-0.289-0.39-0.482-0.545
		c-0.192-0.157-0.412-0.279-0.654-0.365c-0.244-0.088-0.499-0.132-0.767-0.132c-0.486,0-0.899,0.094-1.242,0.282
		c-0.34,0.189-0.614,0.441-0.826,0.76s-0.365,0.678-0.463,1.082c-0.095,0.404-0.144,0.824-0.144,1.256
		c0,0.414,0.049,0.815,0.144,1.206c0.098,0.393,0.251,0.743,0.463,1.057c0.212,0.312,0.486,0.562,0.826,0.752
		c0.343,0.188,0.756,0.281,1.242,0.281c0.663,0,1.18-0.202,1.553-0.607c0.371-0.404,0.6-0.938,0.682-1.602h2.097
		c-0.055,0.617-0.197,1.176-0.427,1.672c-0.231,0.496-0.535,0.919-0.91,1.268c-0.378,0.351-0.82,0.617-1.326,0.802
		c-0.505,0.181-1.06,0.275-1.668,0.275c-0.753,0-1.431-0.131-2.034-0.395c-0.602-0.26-1.11-0.624-1.523-1.083
		c-0.414-0.459-0.732-1.001-0.952-1.621s-0.331-1.287-0.331-2.005c0-0.735,0.111-1.419,0.331-2.048
		c0.22-0.63,0.538-1.18,0.952-1.647c0.413-0.471,0.922-0.839,1.523-1.104c0.604-0.269,1.281-0.402,2.034-0.402
		c0.542,0,1.057,0.08,1.538,0.235c0.483,0.156,0.915,0.383,1.297,0.681c0.381,0.302,0.696,0.67,0.945,1.112s0.404,0.946,0.468,1.516
		h-2.096C445.871,345.377,445.788,345.147,445.659,344.942 M437.277,342.314v1.821h-5.2v2.108h4.771v1.684h-4.771v2.414h5.311v1.82
		h-7.476v-9.848H437.277L437.277,342.314z M424.729,342.314c0.44,0,0.839,0.072,1.192,0.214s0.656,0.339,0.91,0.586
		c0.252,0.248,0.447,0.536,0.578,0.862c0.135,0.325,0.202,0.679,0.202,1.055c0,0.58-0.122,1.081-0.366,1.504
		c-0.245,0.423-0.644,0.745-1.194,0.966v0.027c0.267,0.072,0.487,0.186,0.663,0.338c0.173,0.151,0.318,0.331,0.427,0.536
		c0.112,0.208,0.191,0.436,0.241,0.684c0.051,0.25,0.085,0.497,0.104,0.744c0.009,0.157,0.019,0.343,0.027,0.553
		c0.009,0.213,0.025,0.427,0.05,0.647c0.021,0.222,0.058,0.432,0.108,0.628c0.05,0.198,0.127,0.365,0.228,0.504h-2.164
		c-0.121-0.311-0.193-0.686-0.222-1.117c-0.027-0.433-0.068-0.845-0.124-1.24c-0.073-0.517-0.229-0.893-0.47-1.133
		c-0.239-0.238-0.629-0.357-1.171-0.357h-2.166v3.848h-2.165v-9.848H424.729L424.729,342.314z M423.955,346.771
		c0.497,0,0.87-0.111,1.117-0.332c0.249-0.221,0.373-0.58,0.373-1.076c0-0.478-0.124-0.826-0.373-1.042
		c-0.247-0.216-0.62-0.323-1.117-0.323h-2.372v2.773H423.955L423.955,346.771z"/>
	<path fill="#8D1429" d="M513.313,327.357v3.778h3.985v-3.778h2.165v9.849h-2.165v-4.251h-3.985v4.251h-2.165v-9.849H513.313
		L513.313,327.357z M507.011,329.986c-0.129-0.209-0.29-0.389-0.482-0.545c-0.194-0.157-0.412-0.279-0.656-0.367
		c-0.243-0.088-0.498-0.132-0.766-0.132c-0.487,0-0.9,0.094-1.24,0.282c-0.34,0.191-0.616,0.441-0.827,0.762
		c-0.212,0.316-0.367,0.676-0.462,1.08c-0.098,0.404-0.146,0.824-0.146,1.256c0,0.414,0.049,0.815,0.146,1.206
		c0.095,0.393,0.25,0.743,0.462,1.056c0.211,0.313,0.487,0.564,0.827,0.753c0.34,0.188,0.753,0.281,1.24,0.281
		c0.663,0,1.181-0.2,1.552-0.605c0.373-0.406,0.6-0.939,0.683-1.6h2.099c-0.056,0.614-0.2,1.171-0.429,1.669
		c-0.229,0.495-0.534,0.918-0.91,1.268c-0.378,0.35-0.818,0.616-1.324,0.801c-0.507,0.184-1.063,0.275-1.67,0.275
		c-0.753,0-1.432-0.131-2.033-0.392c-0.604-0.263-1.111-0.624-1.524-1.084c-0.413-0.461-0.73-1.001-0.952-1.62
		c-0.221-0.623-0.331-1.29-0.331-2.008c0-0.735,0.11-1.419,0.331-2.048c0.222-0.63,0.539-1.178,0.952-1.647
		c0.413-0.469,0.921-0.837,1.524-1.104c0.602-0.268,1.28-0.401,2.033-0.401c0.544,0,1.056,0.079,1.54,0.235
		c0.48,0.157,0.912,0.384,1.295,0.683c0.382,0.299,0.696,0.667,0.943,1.109c0.25,0.442,0.406,0.948,0.471,1.519h-2.098
		C507.222,330.419,507.139,330.192,507.011,329.986 M498.503,337.206h-2.165v-9.849h2.165V337.206L498.503,337.206z M494.41,327.357
		v1.82h-5.2v2.111h4.772v1.683h-4.772v2.412h5.311v1.822h-7.477v-9.849H494.41L494.41,327.357z M482.137,327.357
		c0.441,0,0.838,0.072,1.193,0.213c0.353,0.144,0.656,0.339,0.908,0.588c0.254,0.247,0.447,0.534,0.58,0.86
		c0.133,0.327,0.201,0.679,0.201,1.055c0,0.58-0.123,1.081-0.365,1.504c-0.245,0.423-0.644,0.745-1.194,0.967v0.026
		c0.266,0.073,0.487,0.188,0.663,0.338c0.175,0.152,0.316,0.332,0.426,0.539c0.111,0.207,0.191,0.436,0.242,0.684
		c0.051,0.247,0.085,0.494,0.104,0.741c0.01,0.158,0.02,0.343,0.028,0.556c0.008,0.21,0.025,0.426,0.049,0.646
		c0.021,0.221,0.059,0.431,0.109,0.628c0.05,0.197,0.126,0.363,0.227,0.504h-2.166c-0.118-0.313-0.192-0.686-0.219-1.117
		c-0.027-0.433-0.068-0.847-0.124-1.244c-0.072-0.513-0.229-0.891-0.47-1.129c-0.239-0.238-0.63-0.359-1.171-0.359h-2.166v3.85
		h-2.167v-9.849H482.137L482.137,327.357z M481.364,331.813c0.497,0,0.868-0.11,1.117-0.332c0.248-0.22,0.373-0.578,0.373-1.075
		c0-0.479-0.125-0.825-0.373-1.04c-0.249-0.217-0.62-0.324-1.117-0.324h-2.372v2.771H481.364L481.364,331.813z M474.911,327.357
		v1.82h-5.198v2.111h4.771v1.683h-4.771v2.412h5.309v1.822h-7.475v-9.849H474.911L474.911,327.357z M462.044,335.521
		c0.212,0,0.415-0.019,0.608-0.061c0.192-0.041,0.362-0.112,0.511-0.209c0.147-0.095,0.263-0.226,0.351-0.392
		c0.087-0.166,0.131-0.378,0.131-0.636c0-0.504-0.143-0.865-0.428-1.081s-0.662-0.326-1.13-0.326h-2.358v2.704H462.044
		L462.044,335.521z M462.196,327.357c0.47,0,0.896,0.041,1.283,0.124c0.387,0.083,0.717,0.219,0.992,0.407
		c0.276,0.188,0.49,0.439,0.643,0.751c0.15,0.313,0.227,0.701,0.227,1.159c0,0.498-0.111,0.91-0.338,1.239
		c-0.226,0.332-0.559,0.604-0.999,0.815c0.606,0.175,1.061,0.48,1.358,0.917c0.299,0.437,0.448,0.965,0.448,1.579
		c0,0.495-0.097,0.927-0.291,1.291c-0.192,0.363-0.452,0.658-0.778,0.889c-0.327,0.229-0.698,0.398-1.116,0.509
		c-0.418,0.112-0.849,0.168-1.289,0.168h-4.772v-9.849H462.196L462.196,327.357z M461.921,331.344c0.386,0,0.703-0.092,0.952-0.277
		c0.247-0.181,0.371-0.481,0.371-0.896c0-0.23-0.041-0.418-0.124-0.565c-0.083-0.146-0.192-0.262-0.33-0.345
		s-0.296-0.14-0.476-0.174c-0.18-0.031-0.365-0.046-0.559-0.046h-2.027v2.303H461.921L461.921,331.344z M449.204,327.357v3.778
		h3.985v-3.778h2.166v9.849h-2.166v-4.251h-3.985v4.251h-2.166v-9.849H449.204L449.204,327.357z M442.901,329.986
		c-0.128-0.209-0.29-0.389-0.482-0.545c-0.194-0.157-0.412-0.279-0.657-0.367c-0.241-0.088-0.498-0.132-0.764-0.132
		c-0.489,0-0.902,0.094-1.242,0.282c-0.34,0.191-0.615,0.441-0.827,0.762c-0.211,0.316-0.364,0.676-0.462,1.08
		c-0.097,0.404-0.144,0.824-0.144,1.256c0,0.414,0.047,0.815,0.144,1.206c0.098,0.393,0.251,0.743,0.462,1.056
		c0.212,0.313,0.487,0.564,0.827,0.753c0.34,0.188,0.753,0.281,1.242,0.281c0.661,0,1.18-0.2,1.552-0.605
		c0.372-0.406,0.601-0.939,0.683-1.6h2.097c-0.055,0.614-0.197,1.171-0.428,1.669c-0.23,0.495-0.534,0.918-0.91,1.268
		c-0.377,0.35-0.819,0.616-1.323,0.801c-0.506,0.184-1.063,0.275-1.67,0.275c-0.755,0-1.433-0.131-2.034-0.392
		c-0.603-0.263-1.11-0.624-1.523-1.084c-0.414-0.461-0.732-1.001-0.953-1.62c-0.222-0.623-0.33-1.29-0.33-2.008
		c0-0.735,0.108-1.419,0.33-2.048c0.221-0.63,0.539-1.178,0.953-1.647c0.413-0.469,0.921-0.837,1.523-1.104
		c0.602-0.268,1.279-0.401,2.034-0.401c0.542,0,1.056,0.079,1.538,0.235c0.483,0.157,0.915,0.384,1.296,0.683
		c0.382,0.299,0.696,0.667,0.944,1.109c0.249,0.442,0.405,0.948,0.47,1.519h-2.096C443.113,330.419,443.03,330.192,442.901,329.986
		 M432.132,327.357l3.684,9.849h-2.249l-0.744-2.193h-3.683l-0.771,2.193h-2.181l3.725-9.849H432.132L432.132,327.357z
		 M432.257,333.397l-1.242-3.612h-0.027l-1.283,3.612H432.257L432.257,333.397z M426.341,327.357v1.82h-4.758v2.275h4.124v1.683
		h-4.124v4.07h-2.167v-9.849H426.341L426.341,327.357z"/>
	<path fill="#083A64" d="M584.485,311.041c-0.468,0.198-0.943,0.297-1.42,0.297c-0.755,0-1.433-0.132-2.033-0.394
		c-0.604-0.261-1.112-0.622-1.524-1.082c-0.415-0.461-0.731-0.999-0.953-1.619c-0.221-0.622-0.332-1.291-0.332-2.008
		c0-0.736,0.111-1.418,0.332-2.048c0.222-0.631,0.538-1.18,0.953-1.649c0.412-0.47,0.921-0.836,1.524-1.103
		c0.601-0.266,1.278-0.399,2.033-0.399c0.506,0,0.995,0.074,1.469,0.228c0.474,0.15,0.899,0.373,1.283,0.669
		c0.382,0.294,0.696,0.656,0.943,1.088c0.249,0.433,0.401,0.931,0.456,1.491h-2.068c-0.129-0.553-0.379-0.966-0.744-1.243
		c-0.368-0.274-0.815-0.412-1.339-0.412c-0.487,0-0.901,0.093-1.241,0.283c-0.34,0.188-0.617,0.442-0.828,0.759
		c-0.212,0.316-0.365,0.676-0.461,1.082c-0.097,0.405-0.146,0.822-0.146,1.255c0,0.413,0.05,0.817,0.146,1.206
		c0.096,0.391,0.249,0.742,0.461,1.055c0.211,0.313,0.488,0.564,0.828,0.752c0.34,0.188,0.754,0.283,1.241,0.283
		c0.719,0,1.271-0.181,1.663-0.543c0.39-0.365,0.616-0.89,0.681-1.58h-2.178v-1.615h4.138v5.323h-1.38l-0.222-1.114
		C585.383,310.498,584.955,310.845,584.485,311.041 M573.725,301.27c0.44,0,0.839,0.07,1.192,0.215
		c0.354,0.143,0.658,0.337,0.91,0.584c0.254,0.251,0.446,0.537,0.579,0.863c0.134,0.327,0.201,0.678,0.201,1.058
		c0,0.577-0.122,1.077-0.367,1.5c-0.242,0.423-0.641,0.746-1.192,0.968v0.027c0.268,0.073,0.487,0.186,0.663,0.336
		c0.172,0.154,0.316,0.332,0.426,0.539c0.111,0.207,0.191,0.436,0.243,0.684c0.05,0.247,0.083,0.494,0.104,0.745
		c0.008,0.155,0.017,0.34,0.026,0.552c0.01,0.21,0.025,0.426,0.049,0.647c0.023,0.22,0.06,0.429,0.109,0.627
		c0.052,0.197,0.127,0.366,0.229,0.502h-2.167c-0.119-0.311-0.192-0.684-0.221-1.114c-0.026-0.433-0.068-0.848-0.124-1.242
		c-0.073-0.514-0.229-0.893-0.468-1.131c-0.24-0.239-0.63-0.358-1.174-0.358h-2.164v3.846h-2.166v-9.847H573.725L573.725,301.27z
		 M572.951,305.725c0.497,0,0.87-0.11,1.117-0.329c0.249-0.223,0.373-0.58,0.373-1.078c0-0.476-0.124-0.823-0.373-1.041
		c-0.247-0.215-0.62-0.323-1.117-0.323h-2.371v2.771H572.951L572.951,305.725z M566.154,301.27v1.82h-5.199v2.111h4.773v1.682
		h-4.773v2.416h5.31v1.817h-7.476v-9.847H566.154L566.154,301.27z M553.219,309.437c0.21,0,0.414-0.022,0.606-0.063
		c0.192-0.044,0.364-0.11,0.511-0.206c0.147-0.097,0.266-0.229,0.352-0.395c0.088-0.165,0.131-0.376,0.131-0.633
		c0-0.506-0.143-0.868-0.428-1.084c-0.284-0.216-0.66-0.323-1.131-0.323h-2.358v2.704H553.219L553.219,309.437z M553.371,301.27
		c0.468,0,0.896,0.043,1.281,0.126c0.387,0.081,0.718,0.216,0.992,0.403c0.278,0.191,0.491,0.442,0.644,0.752
		c0.151,0.315,0.227,0.7,0.227,1.159c0,0.498-0.112,0.912-0.339,1.244c-0.224,0.33-0.557,0.601-0.999,0.813
		c0.606,0.174,1.061,0.48,1.358,0.916c0.299,0.438,0.45,0.965,0.45,1.58c0,0.497-0.099,0.926-0.29,1.29
		c-0.193,0.363-0.455,0.661-0.78,0.889c-0.326,0.231-0.699,0.401-1.117,0.511c-0.418,0.11-0.847,0.164-1.289,0.164h-4.772v-9.847
		H553.371L553.371,301.27z M553.094,305.258c0.388,0,0.705-0.094,0.952-0.277s0.373-0.482,0.373-0.897
		c0-0.229-0.042-0.417-0.126-0.564c-0.081-0.146-0.191-0.263-0.33-0.344c-0.138-0.085-0.296-0.142-0.474-0.173
		c-0.181-0.034-0.367-0.049-0.561-0.049h-2.027v2.305H553.094L553.094,305.258z M540.087,301.27l4.11,6.606h0.026v-6.606h2.028
		v9.847h-2.164l-4.098-6.592h-0.028v6.592h-2.026v-9.847H540.087L540.087,301.27z M532.82,301.27c0.441,0,0.839,0.07,1.192,0.215
		c0.354,0.143,0.657,0.337,0.91,0.584c0.254,0.251,0.447,0.537,0.578,0.863c0.135,0.327,0.201,0.678,0.201,1.058
		c0,0.577-0.122,1.077-0.365,1.5c-0.244,0.423-0.641,0.746-1.194,0.968v0.027c0.269,0.073,0.488,0.186,0.663,0.336
		c0.176,0.154,0.318,0.332,0.429,0.539c0.108,0.207,0.19,0.436,0.24,0.684c0.051,0.247,0.086,0.494,0.104,0.745
		c0.01,0.155,0.019,0.34,0.028,0.552c0.01,0.21,0.024,0.426,0.049,0.647c0.021,0.22,0.059,0.429,0.108,0.627
		c0.052,0.197,0.127,0.366,0.229,0.502h-2.165c-0.121-0.311-0.194-0.684-0.221-1.114c-0.028-0.433-0.069-0.848-0.124-1.242
		c-0.073-0.514-0.23-0.893-0.47-1.131c-0.237-0.239-0.63-0.358-1.172-0.358h-2.166v3.846h-2.166v-9.847H532.82L532.82,301.27z
		 M532.048,305.725c0.496,0,0.867-0.11,1.116-0.329c0.249-0.223,0.373-0.58,0.373-1.078c0-0.476-0.124-0.823-0.373-1.041
		c-0.249-0.215-0.62-0.323-1.116-0.323h-2.373v2.771H532.048L532.048,305.725z M524.168,310.366
		c-0.744,0.649-1.775,0.972-3.089,0.972c-1.334,0-2.367-0.321-3.096-0.965c-0.732-0.643-1.098-1.637-1.098-2.979v-6.124h2.165v6.124
		c0,0.267,0.023,0.53,0.069,0.786c0.047,0.258,0.142,0.486,0.289,0.684s0.353,0.357,0.614,0.482s0.613,0.186,1.056,0.186
		c0.772,0,1.305-0.173,1.599-0.517c0.295-0.346,0.442-0.885,0.442-1.621v-6.124h2.164v6.124
		C525.284,308.729,524.913,309.719,524.168,310.366 M523.436,300.167h-1.861v-1.614h1.861V300.167L523.436,300.167z
		 M520.595,300.167h-1.861v-1.614h1.861V300.167L520.595,300.167z M508.352,301.27l4.109,6.606h0.027v-6.606h2.027v9.847h-2.166
		l-4.096-6.592h-0.027v6.592h-2.027v-9.847H508.352L508.352,301.27z M503.711,308.192h-4.153v-1.682h4.153V308.192L503.711,308.192z
		 M490.936,301.27l4.111,6.606h0.027v-6.606h2.027v9.847h-2.165l-4.097-6.592h-0.027v6.592h-2.027v-9.847H490.936L490.936,301.27z
		 M486.525,301.27v1.82h-5.198v2.111h4.771v1.682h-4.771v2.416h5.31v1.817h-7.476v-9.847H486.525L486.525,301.27z M474.155,311.041
		c-0.47,0.198-0.943,0.297-1.421,0.297c-0.755,0-1.434-0.132-2.034-0.394c-0.604-0.261-1.111-0.622-1.524-1.082
		c-0.416-0.461-0.731-0.999-0.953-1.619c-0.219-0.622-0.33-1.291-0.33-2.008c0-0.736,0.111-1.418,0.33-2.048
		c0.222-0.631,0.537-1.18,0.953-1.649c0.413-0.47,0.921-0.836,1.524-1.103c0.601-0.266,1.279-0.399,2.034-0.399
		c0.506,0,0.995,0.074,1.469,0.228c0.473,0.15,0.901,0.373,1.283,0.669c0.381,0.294,0.695,0.656,0.944,1.088
		c0.247,0.433,0.399,0.931,0.454,1.491h-2.068c-0.129-0.553-0.376-0.966-0.744-1.243c-0.368-0.274-0.815-0.412-1.338-0.412
		c-0.487,0-0.902,0.093-1.242,0.283c-0.34,0.188-0.615,0.442-0.827,0.759c-0.211,0.316-0.365,0.676-0.462,1.082
		c-0.097,0.405-0.146,0.822-0.146,1.255c0,0.413,0.05,0.817,0.146,1.206c0.097,0.391,0.251,0.742,0.462,1.055
		c0.212,0.313,0.487,0.564,0.827,0.752c0.34,0.188,0.755,0.283,1.242,0.283c0.718,0,1.27-0.181,1.662-0.543
		c0.39-0.365,0.616-0.89,0.683-1.58h-2.18v-1.615h4.138v5.323h-1.38l-0.219-1.114C475.051,310.498,474.623,310.845,474.155,311.041
		 M459.92,301.27l4.11,6.606h0.028v-6.606h2.026v9.847h-2.164l-4.098-6.592h-0.026v6.592h-2.026v-9.847H459.92L459.92,301.27z
		 M452.86,301.27l3.682,9.847h-2.248l-0.745-2.19h-3.682l-0.774,2.19h-2.179l3.725-9.847H452.86L452.86,301.27z M452.983,307.311
		l-1.242-3.613h-0.026l-1.283,3.613H452.983L452.983,307.311z M441.219,301.27v8.029h4.799v1.817h-6.965v-9.847H441.219
		L441.219,301.27z M434.215,301.27c0.44,0,0.838,0.07,1.191,0.215c0.354,0.143,0.657,0.337,0.91,0.584
		c0.254,0.251,0.446,0.537,0.58,0.863c0.133,0.327,0.2,0.678,0.2,1.058c0,0.577-0.123,1.077-0.366,1.5s-0.642,0.746-1.192,0.968
		v0.027c0.266,0.073,0.487,0.186,0.661,0.336c0.176,0.154,0.317,0.332,0.428,0.539c0.111,0.207,0.191,0.436,0.243,0.684
		c0.05,0.247,0.084,0.494,0.103,0.745c0.009,0.155,0.018,0.34,0.026,0.552c0.01,0.21,0.025,0.426,0.049,0.647
		c0.023,0.22,0.061,0.429,0.111,0.627c0.05,0.197,0.125,0.366,0.227,0.502h-2.166c-0.119-0.311-0.192-0.684-0.221-1.114
		c-0.028-0.433-0.069-0.848-0.123-1.242c-0.074-0.514-0.23-0.893-0.469-1.131c-0.239-0.239-0.629-0.358-1.173-0.358h-2.165v3.846
		h-2.166v-9.847H434.215L434.215,301.27z M433.441,305.725c0.496,0,0.869-0.11,1.116-0.329c0.249-0.223,0.372-0.58,0.372-1.078
		c0-0.476-0.123-0.823-0.372-1.041c-0.247-0.215-0.62-0.323-1.116-0.323h-2.372v2.771H433.441L433.441,305.725z M426.783,301.27
		v1.82h-5.2v2.111h4.772v1.682h-4.772v2.416h5.309v1.817h-7.476v-9.847H426.783L426.783,301.27z"/>
	<path fill="#083A64" d="M505.883,288.194v-1.821h8.068v1.821H511v8.026h-2.166v-8.026H505.883L505.883,288.194z M502.407,286.374
		l3.683,9.847h-2.25l-0.743-2.192h-3.683l-0.772,2.192h-2.179l3.724-9.847H502.407L502.407,286.374z M502.531,292.415l-1.24-3.614
		h-0.029l-1.281,3.614H502.531L502.531,292.415z M503.62,285.27h-1.863v-1.613h1.863V285.27L503.62,285.27z M500.78,285.27h-1.862
		v-1.613h1.862V285.27L500.78,285.27z M488.546,288.194v-1.821h8.069v1.821h-2.952v8.026h-2.166v-8.026H488.546L488.546,288.194z
		 M486.807,296.221h-2.164v-9.847h2.164V296.221L486.807,296.221z M476.739,293.794c0.119,0.23,0.278,0.416,0.476,0.559
		c0.198,0.143,0.432,0.249,0.697,0.317c0.266,0.07,0.542,0.104,0.827,0.104c0.193,0,0.4-0.016,0.621-0.047
		c0.22-0.032,0.427-0.095,0.621-0.188c0.192-0.091,0.353-0.218,0.482-0.378c0.128-0.161,0.192-0.366,0.192-0.615
		c0-0.266-0.084-0.481-0.255-0.648c-0.171-0.165-0.393-0.302-0.669-0.413c-0.275-0.11-0.587-0.208-0.938-0.29
		c-0.349-0.084-0.703-0.175-1.062-0.276c-0.368-0.092-0.728-0.204-1.076-0.338c-0.35-0.133-0.661-0.305-0.937-0.518
		c-0.277-0.211-0.5-0.475-0.669-0.792c-0.171-0.317-0.256-0.702-0.256-1.151c0-0.506,0.108-0.945,0.325-1.317
		c0.216-0.374,0.498-0.684,0.847-0.932c0.35-0.249,0.746-0.432,1.187-0.551s0.883-0.179,1.325-0.179
		c0.515,0,1.008,0.057,1.482,0.171c0.473,0.117,0.895,0.302,1.261,0.559c0.368,0.258,0.659,0.586,0.875,0.987
		c0.218,0.398,0.325,0.885,0.325,1.455h-2.096c-0.02-0.294-0.082-0.538-0.187-0.731c-0.104-0.193-0.245-0.344-0.422-0.455
		c-0.174-0.11-0.374-0.188-0.598-0.235c-0.228-0.045-0.473-0.068-0.739-0.068c-0.174,0-0.35,0.019-0.523,0.055
		c-0.176,0.038-0.333,0.102-0.477,0.192c-0.142,0.092-0.26,0.208-0.352,0.345c-0.093,0.137-0.139,0.313-0.139,0.524
		c0,0.192,0.038,0.35,0.111,0.468c0.074,0.12,0.218,0.23,0.434,0.332c0.217,0.1,0.516,0.202,0.896,0.302
		c0.382,0.102,0.882,0.23,1.497,0.387c0.184,0.037,0.438,0.104,0.766,0.2c0.326,0.097,0.65,0.25,0.972,0.462
		c0.322,0.212,0.6,0.495,0.835,0.849c0.234,0.353,0.351,0.806,0.351,1.358c0,0.45-0.086,0.869-0.261,1.256
		c-0.174,0.385-0.435,0.72-0.779,0.999c-0.344,0.28-0.771,0.5-1.283,0.656c-0.51,0.157-1.101,0.234-1.771,0.234
		c-0.544,0-1.07-0.066-1.581-0.2c-0.51-0.133-0.961-0.342-1.351-0.629c-0.391-0.285-0.7-0.647-0.932-1.087
		c-0.229-0.443-0.341-0.967-0.33-1.573h2.097C476.562,293.284,476.62,293.564,476.739,293.794 M470.037,286.374
		c0.442,0,0.838,0.072,1.194,0.215c0.352,0.143,0.655,0.337,0.909,0.585c0.252,0.249,0.444,0.537,0.579,0.862
		c0.132,0.326,0.199,0.679,0.199,1.056c0,0.58-0.122,1.08-0.365,1.502c-0.243,0.423-0.641,0.745-1.192,0.967v0.027
		c0.266,0.073,0.486,0.186,0.662,0.337c0.174,0.152,0.315,0.331,0.428,0.537c0.109,0.208,0.188,0.435,0.241,0.684
		c0.05,0.248,0.085,0.496,0.103,0.745c0.01,0.156,0.02,0.34,0.029,0.552c0.007,0.211,0.024,0.426,0.046,0.648
		c0.024,0.22,0.061,0.43,0.112,0.627c0.05,0.197,0.125,0.365,0.227,0.502h-2.165c-0.12-0.313-0.194-0.685-0.221-1.115
		c-0.028-0.432-0.069-0.846-0.123-1.242c-0.076-0.515-0.231-0.892-0.47-1.132c-0.24-0.239-0.631-0.358-1.173-0.358h-2.166v3.847
		h-2.166v-9.847H470.037L470.037,286.374z M469.265,290.829c0.496,0,0.868-0.11,1.117-0.331c0.247-0.221,0.372-0.58,0.372-1.077
		c0-0.478-0.125-0.825-0.372-1.042c-0.249-0.215-0.621-0.322-1.117-0.322h-2.373v2.771H469.265L469.265,290.829z M462.605,286.374
		v1.821h-5.199v2.111h4.771v1.682h-4.771v2.414h5.31v1.82h-7.476v-9.847H462.605L462.605,286.374z M447.93,296.221l-3.185-9.847
		h2.221l2.193,6.924h0.028l2.219-6.924h2.234l-3.269,9.847H447.93L447.93,296.221z M443.182,296.221h-2.167v-9.847h2.167V296.221
		L443.182,296.221z M432.439,286.374l4.108,6.607h0.027v-6.607h2.026v9.847h-2.164l-4.097-6.591h-0.027v6.591h-2.027v-9.847H432.439
		L432.439,286.374z M426.729,295.471c-0.746,0.647-1.775,0.972-3.09,0.972c-1.334,0-2.366-0.322-3.096-0.966
		c-0.732-0.643-1.098-1.636-1.098-2.978v-6.125h2.166v6.125c0,0.267,0.022,0.529,0.068,0.786c0.047,0.257,0.143,0.484,0.289,0.683
		c0.148,0.198,0.352,0.358,0.614,0.482c0.262,0.125,0.614,0.187,1.056,0.187c0.772,0,1.306-0.174,1.6-0.517
		c0.295-0.347,0.441-0.887,0.441-1.621v-6.125h2.165v6.125C427.845,293.832,427.473,294.821,426.729,295.471"/>
	<path fill="#083A64" d="M590.367,271.294c0.441,0,0.839,0.071,1.193,0.214c0.354,0.142,0.657,0.337,0.909,0.585
		c0.254,0.249,0.447,0.536,0.58,0.862s0.2,0.678,0.2,1.055c0,0.58-0.122,1.081-0.366,1.504c-0.243,0.423-0.641,0.745-1.193,0.966
		v0.027c0.268,0.073,0.488,0.186,0.663,0.337c0.175,0.152,0.317,0.331,0.427,0.538c0.111,0.207,0.19,0.435,0.241,0.684
		c0.051,0.247,0.087,0.496,0.104,0.744c0.009,0.157,0.02,0.34,0.028,0.552s0.024,0.427,0.049,0.648
		c0.021,0.22,0.059,0.43,0.108,0.627c0.053,0.197,0.128,0.365,0.229,0.503h-2.166c-0.119-0.313-0.193-0.685-0.221-1.117
		s-0.069-0.845-0.124-1.242c-0.074-0.514-0.23-0.892-0.471-1.131c-0.237-0.239-0.629-0.359-1.171-0.359h-2.167v3.849h-2.164v-9.847
		H590.367L590.367,271.294z M589.594,275.75c0.497,0,0.87-0.111,1.119-0.332c0.247-0.221,0.371-0.579,0.371-1.075
		c0-0.478-0.124-0.826-0.371-1.041c-0.249-0.217-0.622-0.325-1.119-0.325h-2.373v2.773H589.594L589.594,275.75z M583.005,271.294
		v1.821h-5.2v2.109h4.771v1.683h-4.771v2.415h5.311v1.819h-7.476v-9.847H583.005L583.005,271.294z M569.391,271.294
		c0.635,0,1.226,0.101,1.773,0.303c0.547,0.202,1.021,0.506,1.421,0.911c0.399,0.404,0.712,0.91,0.938,1.517
		c0.224,0.607,0.337,1.32,0.337,2.137c0,0.718-0.091,1.38-0.276,1.986c-0.183,0.608-0.462,1.131-0.835,1.573
		c-0.371,0.441-0.836,0.788-1.392,1.041c-0.557,0.254-1.211,0.379-1.967,0.379h-4.248v-9.847H569.391L569.391,271.294z
		 M569.239,279.322c0.313,0,0.617-0.051,0.912-0.153c0.293-0.1,0.556-0.27,0.784-0.503c0.23-0.233,0.414-0.54,0.552-0.917
		c0.139-0.377,0.208-0.836,0.208-1.379c0-0.497-0.048-0.944-0.145-1.344c-0.097-0.4-0.257-0.743-0.478-1.028
		c-0.222-0.285-0.513-0.503-0.874-0.655c-0.363-0.151-0.813-0.227-1.346-0.227h-1.545v6.207H569.239L569.239,279.322z
		 M556.662,271.294l4.11,6.605h0.025v-6.605h2.027v9.847h-2.164l-4.096-6.593h-0.028v6.593h-2.027v-9.847H556.662L556.662,271.294z
		 M549.54,271.294l3.682,9.847h-2.247l-0.745-2.192h-3.683l-0.771,2.192h-2.18l3.724-9.847H549.54L549.54,271.294z M549.664,277.335
		l-1.241-3.613h-0.028l-1.282,3.613H549.664L549.664,277.335z M533.706,271.294h2.51l1.932,3.144l2-3.144h2.372l-3.158,4.704
		l3.435,5.144h-2.58l-2.15-3.407l-2.192,3.407h-2.428l3.433-5.158L533.706,271.294L533.706,271.294z M532.038,271.294v1.821h-5.2
		v2.109h4.771v1.683h-4.771v2.415h5.311v1.819h-7.477v-9.847H532.038L532.038,271.294z M518.141,271.294v8.028h4.8v1.819h-6.964
		v-9.847H518.141L518.141,271.294z M510.8,271.294l3.683,9.847h-2.248l-0.745-2.192h-3.684l-0.771,2.192h-2.179l3.723-9.847H510.8
		L510.8,271.294z M510.923,277.335l-1.24-3.613h-0.027l-1.283,3.613H510.923L510.923,277.335z M503.815,278.218h-4.152v-1.683h4.152
		V278.218L503.815,278.218z M491.055,271.294v3.779h3.986v-3.779h2.166v9.847h-2.166v-4.248h-3.986v4.248h-2.166v-9.847H491.055
		L491.055,271.294z M484.479,273.922c-0.131-0.207-0.29-0.389-0.482-0.544c-0.194-0.157-0.412-0.279-0.657-0.367
		c-0.242-0.087-0.498-0.131-0.764-0.131c-0.489,0-0.902,0.094-1.242,0.283c-0.34,0.189-0.616,0.442-0.827,0.759
		c-0.211,0.317-0.366,0.678-0.462,1.082c-0.097,0.405-0.146,0.823-0.146,1.255c0,0.414,0.049,0.816,0.146,1.207
		c0.096,0.391,0.251,0.742,0.462,1.056c0.211,0.313,0.487,0.563,0.827,0.751c0.34,0.189,0.753,0.283,1.242,0.283
		c0.661,0,1.178-0.201,1.551-0.606c0.372-0.405,0.601-0.938,0.683-1.6h2.098c-0.055,0.615-0.199,1.172-0.428,1.668
		c-0.23,0.497-0.534,0.919-0.911,1.27c-0.376,0.35-0.818,0.616-1.324,0.8s-1.063,0.276-1.668,0.276
		c-0.755,0-1.434-0.132-2.034-0.394c-0.603-0.262-1.111-0.623-1.524-1.083c-0.413-0.459-0.731-0.999-0.952-1.619
		c-0.222-0.622-0.33-1.291-0.33-2.008c0-0.735,0.108-1.418,0.33-2.048c0.221-0.63,0.539-1.179,0.952-1.648s0.922-0.836,1.524-1.104
		c0.601-0.266,1.279-0.399,2.034-0.399c0.542,0,1.054,0.078,1.537,0.234c0.483,0.156,0.914,0.383,1.296,0.683
		c0.383,0.298,0.697,0.669,0.945,1.11c0.248,0.442,0.405,0.948,0.47,1.518h-2.097C484.69,274.355,484.607,274.128,484.479,273.922
		 M475.832,281.142h-2.164v-9.847h2.164V281.142L475.832,281.142z M468.602,271.294c0.44,0,0.839,0.071,1.192,0.214
		c0.354,0.142,0.658,0.337,0.91,0.585c0.254,0.249,0.447,0.536,0.58,0.862s0.2,0.678,0.2,1.055c0,0.58-0.122,1.081-0.365,1.504
		c-0.244,0.423-0.643,0.745-1.193,0.966v0.027c0.267,0.073,0.487,0.186,0.662,0.337c0.174,0.152,0.317,0.331,0.428,0.538
		c0.11,0.207,0.19,0.435,0.241,0.684c0.05,0.247,0.085,0.496,0.104,0.744c0.007,0.157,0.017,0.34,0.025,0.552
		c0.011,0.211,0.027,0.427,0.049,0.648c0.023,0.22,0.06,0.43,0.109,0.627c0.052,0.197,0.127,0.365,0.229,0.503h-2.165
		c-0.12-0.313-0.194-0.685-0.221-1.117c-0.028-0.432-0.07-0.845-0.126-1.242c-0.072-0.514-0.229-0.892-0.468-1.131
		c-0.24-0.239-0.63-0.359-1.173-0.359h-2.165v3.849h-2.166v-9.847H468.602L468.602,271.294z M467.829,275.75
		c0.496,0,0.869-0.111,1.118-0.332c0.247-0.221,0.371-0.579,0.371-1.075c0-0.478-0.124-0.826-0.371-1.041
		c-0.249-0.217-0.622-0.325-1.118-0.325h-2.372v2.773H467.829L467.829,275.75z M457.065,271.294c0.634,0,1.225,0.101,1.772,0.303
		c0.547,0.202,1.021,0.506,1.421,0.911c0.399,0.404,0.712,0.91,0.938,1.517c0.226,0.607,0.337,1.32,0.337,2.137
		c0,0.718-0.091,1.38-0.276,1.986c-0.183,0.608-0.46,1.131-0.833,1.573c-0.373,0.441-0.838,0.788-1.394,1.041
		c-0.557,0.254-1.211,0.379-1.966,0.379h-4.248v-9.847H457.065L457.065,271.294z M456.915,279.322c0.311,0,0.615-0.051,0.91-0.153
		c0.294-0.1,0.556-0.27,0.786-0.503c0.229-0.233,0.413-0.54,0.551-0.917c0.138-0.377,0.207-0.836,0.207-1.379
		c0-0.497-0.048-0.944-0.145-1.344c-0.097-0.4-0.257-0.743-0.478-1.028c-0.219-0.285-0.512-0.503-0.874-0.655
		c-0.363-0.151-0.813-0.227-1.345-0.227h-1.545v6.207H456.915L456.915,279.322z M450.697,271.294v1.821h-5.199v2.109h4.771v1.683
		h-4.771v2.415h5.308v1.819h-7.474v-9.847H450.697L450.697,271.294z M440.849,281.142h-2.166v-9.847h2.166V281.142L440.849,281.142z
		 M433.411,271.294c0.442,0,0.838,0.071,1.192,0.214c0.355,0.142,0.657,0.337,0.911,0.585c0.252,0.249,0.445,0.536,0.578,0.862
		c0.134,0.327,0.2,0.678,0.2,1.055c0,0.58-0.122,1.081-0.365,1.504c-0.244,0.423-0.642,0.745-1.192,0.966v0.027
		c0.266,0.073,0.486,0.186,0.662,0.337c0.174,0.152,0.317,0.331,0.428,0.538c0.108,0.207,0.19,0.435,0.241,0.684
		c0.05,0.247,0.084,0.496,0.103,0.744c0.01,0.157,0.02,0.34,0.027,0.552c0.009,0.211,0.024,0.427,0.049,0.648
		c0.022,0.22,0.061,0.43,0.111,0.627c0.05,0.197,0.126,0.365,0.227,0.503h-2.165c-0.12-0.313-0.194-0.685-0.221-1.117
		c-0.028-0.432-0.07-0.845-0.125-1.242c-0.074-0.514-0.229-0.892-0.468-1.131c-0.24-0.239-0.631-0.359-1.173-0.359h-2.166v3.849
		h-2.165v-9.847H433.411L433.411,271.294z M432.639,275.75c0.495,0,0.869-0.111,1.117-0.332c0.249-0.221,0.371-0.579,0.371-1.075
		c0-0.478-0.122-0.826-0.371-1.041c-0.248-0.217-0.622-0.325-1.117-0.325h-2.373v2.773H432.639L432.639,275.75z M426.341,271.294
		v1.821h-4.758v2.275h4.124v1.683h-4.124v4.068h-2.167v-9.847H426.341L426.341,271.294z"/>
	<path fill="#083A64" d="M397.841,306.449h-41.065c2.523,2.06,5.443,3.604,8.535,4.679h23.972
		C392.385,310.054,395.313,308.509,397.841,306.449"/>
	<polygon fill="#083A64" points="284.793,304.104 302.591,304.104 302.619,304.019 302.569,304.019 304.042,299.427 
		286.564,299.427 284.793,304.104 	"/>
	<polygon fill="#083A64" points="283.977,306.449 282.204,311.128 300.337,311.128 301.883,306.449 283.977,306.449 	"/>
	<polygon fill="#083A64" points="245.99,311.128 262.984,311.128 262.984,306.449 245.99,306.449 245.99,311.128 	"/>
	<polygon fill="#083A64" points="262.984,299.427 245.99,299.427 245.99,304.104 262.984,304.104 262.984,299.427 	"/>
	<polygon fill="#083A64" points="262.984,292.409 245.99,292.409 245.99,297.087 262.984,297.087 262.984,292.409 	"/>
	<polygon fill="#083A64" points="262.984,285.395 245.99,285.395 245.99,290.072 262.984,290.072 262.984,285.395 	"/>
	<polygon fill="#083A64" points="262.984,264.332 245.99,264.332 245.99,269.009 262.984,269.009 262.984,264.332 	"/>
	<polygon fill="#083A64" points="262.984,257.302 245.99,257.302 245.99,261.98 262.984,261.98 262.984,257.302 	"/>
	<polygon fill="#083A64" points="245.99,247.947 297.926,247.947 297.926,243.27 245.99,243.27 245.99,247.947 	"/>
	<polygon fill="#083A64" points="245.99,254.963 297.926,254.963 297.926,250.286 245.99,250.286 245.99,254.963 	"/>
	<polygon fill="#083A64" points="314.831,264.332 299.505,264.332 297.73,269.009 313.39,269.009 314.831,264.332 	"/>
	<polygon fill="#083A64" points="305.495,247.947 326.65,247.947 324.836,243.27 307.269,243.27 305.495,247.947 	"/>
	<polygon fill="#083A64" points="302.907,254.963 329.296,254.963 327.482,250.286 304.68,250.286 302.907,254.963 	"/>
	<polygon fill="#083A64" points="316.996,261.993 331.944,261.993 330.129,257.315 302.092,257.315 300.319,261.993 315.49,261.993 
		316.148,259.849 316.338,259.849 316.996,261.993 	"/>
	<polygon fill="#083A64" points="319.094,269.009 334.59,269.009 332.776,264.332 317.658,264.332 319.094,269.009 	"/>
	<polygon fill="#8D1429" points="321.19,276.018 337.237,276.018 335.423,271.341 319.754,271.341 321.19,276.018 	"/>
	<polygon fill="#8D1429" points="323.289,283.034 339.885,283.034 338.07,278.356 321.851,278.356 323.289,283.034 	"/>
	<polygon fill="#083A64" points="289.966,290.072 342.532,290.072 340.717,285.395 291.741,285.395 289.966,290.072 	"/>
	<polygon fill="#083A64" points="287.38,297.088 345.178,297.088 343.364,292.41 289.153,292.41 287.38,297.088 	"/>
	<polygon fill="#083A64" points="330.041,304.104 347.828,304.104 346.013,299.427 328.475,299.427 330.041,304.104 	"/>
	<polygon fill="#083A64" points="330.701,306.449 332.243,311.128 350.472,311.128 348.658,306.449 330.701,306.449 	"/>
	<polygon fill="#083A64" points="348.528,247.947 365.521,247.947 365.521,243.27 348.528,243.27 348.528,247.947 	"/>
	<polygon fill="#083A64" points="348.528,254.963 365.521,254.963 365.521,250.286 348.528,250.286 348.528,254.963 	"/>
	<polygon fill="#083A64" points="348.528,261.993 365.521,261.993 365.521,257.315 348.528,257.315 348.528,261.993 	"/>
	<polygon fill="#083A64" points="348.528,269.009 365.521,269.009 365.521,264.332 348.528,264.332 348.528,269.009 	"/>
	<polygon fill="#8D1429" points="348.528,276.018 365.521,276.018 365.521,271.341 348.528,271.341 348.528,276.018 	"/>
	<polygon fill="#8D1429" points="348.528,283.034 365.521,283.034 365.521,278.356 348.528,278.356 348.528,283.034 	"/>
	<path fill="#083A64" d="M348.663,290.072h17.177c-0.216-1.211-0.319-2.505-0.319-3.867v-0.81h-16.993v2.204
		C348.528,288.458,348.595,289.264,348.663,290.072"/>
	<path fill="#083A64" d="M350.184,297.088h19.381c-1.51-1.177-2.534-2.775-3.177-4.678h-17.445
		C349.222,294.078,349.624,295.65,350.184,297.088"/>
	<path fill="#083A64" d="M403.478,299.427h-52.333c0.914,1.749,2.04,3.298,3.319,4.678h45.695
		C401.439,302.725,402.568,301.176,403.478,299.427"/>
	<path fill="#083A64" d="M405.685,292.41h-17.449c-0.643,1.902-1.677,3.5-3.195,4.678h19.4
		C405.002,295.649,405.403,294.078,405.685,292.41"/>
	<polygon fill="#083A64" points="389.104,247.947 406.098,247.947 406.098,243.27 389.104,243.27 389.104,247.947 	"/>
	<polygon fill="#083A64" points="389.104,254.963 406.098,254.963 406.098,250.286 389.104,250.286 389.104,254.963 	"/>
	<polygon fill="#083A64" points="389.104,261.993 406.098,261.993 406.098,257.315 389.104,257.315 389.104,261.993 	"/>
	<polygon fill="#083A64" points="389.104,269.009 406.098,269.009 406.098,264.332 389.104,264.332 389.104,269.009 	"/>
	<polygon fill="#8D1429" points="389.104,276.018 406.098,276.018 406.098,271.341 389.104,271.341 389.104,276.018 	"/>
	<polygon fill="#8D1429" points="389.104,283.034 406.098,283.034 406.098,278.356 389.104,278.356 389.104,283.034 	"/>
	<path fill="#083A64" d="M406.098,287.599v-2.204h-16.992v0.81c0,1.363-0.104,2.656-0.32,3.867h17.176
		C406.029,289.264,406.098,288.458,406.098,287.599"/>
	<polygon fill="#8D1429" points="245.99,278.356 245.99,283.032 309.199,283.032 310.635,278.356 245.99,278.356 	"/>
	<polygon fill="#8D1429" points="245.99,271.341 245.99,276.018 311.296,276.018 312.732,271.341 245.99,271.341 	"/>
</g>
</svg>
